#N canvas 548 34 820 634 12;
#X obj 234 75 bng 95 250 50 0 new_chord asdf ::NeW::cHoRd:: 0 -10 0 12 #ff8300 #0400ff #9c00ff;
#X obj 116 190 r new_chord;
#X obj 114 284 +;
#X obj 114 308 clip 0 12;
#X obj 114 429 + 12;
#X obj 266 268 - 1;
#X obj 266 292 +;
#X msg 176 414 2;
#X msg 214 417 3;
#X msg 253 419 4;
#X msg 289 419 5;
#X msg 326 416 7;
#X msg 364 417 8;
#X msg 402 415 9;
#X msg 438 412 10;
#X obj 268 345 sel 0 1 2 3 4 5 6 7;
#X obj 266 316 clip 0 8;
#X obj 266 242 random 3;
#X obj 304 487 +;
#X obj 115 334 t b f;
#X obj 304 511 mod 12;
#X obj 502 330 - 1;
#X obj 502 354 +;
#X msg 412 476 2;
#X msg 450 479 3;
#X msg 489 481 4;
#X msg 525 481 5;
#X msg 562 478 7;
#X msg 600 479 8;
#X msg 638 477 9;
#X msg 674 474 10;
#X obj 504 407 sel 0 1 2 3 4 5 6 7;
#X obj 502 378 clip 0 8;
#X obj 502 304 random 3;
#X obj 540 549 +;
#X obj 540 573 mod 12;
#X obj 301 544 t b f;
#X obj 119 476 + 60;
#X obj 305 576 + 60;
#X obj 542 606 + 60;
#X obj 121 530 osc~;
#X obj 119 500 mtof;
#X obj 124 588 /~ 3;
#X obj 86 613 dac~;
#X obj 264 601 osc~;
#X obj 262 571 mtof;
#X obj 491 615 osc~;
#X obj 489 585 mtof;
#X obj 116 215 random 5;
#X obj 117 239 - 2;
#X obj 355 57 vsl 19 162 0 1 0 0 vol asfghj empty 0 -9 0 12 #fcfcfc #000000 #000000 0 1;
#X obj 69 552 *~;
#X obj 43 447 r vol;
#X msg 43 471 \$1 50;
#X obj 43 495 line~;
#X connect 1 0 48 0;
#X connect 2 0 3 0;
#X connect 3 0 2 1;
#X connect 3 0 19 0;
#X connect 4 0 37 0;
#X connect 5 0 6 0;
#X connect 6 0 16 0;
#X connect 7 0 18 0;
#X connect 8 0 18 0;
#X connect 9 0 18 0;
#X connect 10 0 18 0;
#X connect 11 0 18 0;
#X connect 12 0 18 0;
#X connect 13 0 18 0;
#X connect 14 0 18 0;
#X connect 15 0 7 0;
#X connect 15 1 8 0;
#X connect 15 2 9 0;
#X connect 15 3 10 0;
#X connect 15 4 11 0;
#X connect 15 5 12 0;
#X connect 15 6 13 0;
#X connect 15 7 14 0;
#X connect 16 0 6 1;
#X connect 16 0 15 0;
#X connect 17 0 5 0;
#X connect 18 0 20 0;
#X connect 19 0 17 0;
#X connect 19 1 18 1;
#X connect 19 1 4 0;
#X connect 20 0 36 0;
#X connect 21 0 22 0;
#X connect 22 0 32 0;
#X connect 23 0 34 0;
#X connect 24 0 34 0;
#X connect 25 0 34 0;
#X connect 26 0 34 0;
#X connect 27 0 34 0;
#X connect 28 0 34 0;
#X connect 29 0 34 0;
#X connect 30 0 34 0;
#X connect 31 0 23 0;
#X connect 31 1 24 0;
#X connect 31 2 25 0;
#X connect 31 3 26 0;
#X connect 31 4 27 0;
#X connect 31 5 28 0;
#X connect 31 6 29 0;
#X connect 31 7 30 0;
#X connect 32 0 22 1;
#X connect 32 0 31 0;
#X connect 33 0 21 0;
#X connect 34 0 35 0;
#X connect 35 0 39 0;
#X connect 36 0 33 0;
#X connect 36 1 34 1;
#X connect 36 1 38 0;
#X connect 37 0 41 0;
#X connect 38 0 45 0;
#X connect 39 0 47 0;
#X connect 40 0 42 0;
#X connect 41 0 40 0;
#X connect 42 0 51 0;
#X connect 44 0 42 0;
#X connect 45 0 44 0;
#X connect 46 0 42 0;
#X connect 47 0 46 0;
#X connect 48 0 49 0;
#X connect 49 0 2 0;
#X connect 51 0 43 0;
#X connect 51 0 43 1;
#X connect 52 0 53 0;
#X connect 53 0 54 0;
#X connect 54 0 51 1;
